<svg class="icon" width="200" height="200" viewBox="0 0 1024 1024" xmlns="http://www.w3.org/2000/svg"><path d="M955.967 837.616c-2.938-132.315-82.778-245.621-196.697-297.075 52.629-40.884 86.508-104.715 86.508-176.473 0-123.43-100.141-223.483-223.68-223.483-40.547 0-78.529 10.834-111.312 29.679-32.784-18.843-70.761-29.679-111.301-29.679-123.54 0-223.7 100.053-223.7 223.483 0 71.602 33.74 135.304 86.175 176.197C148.706 591.141 68.97 703.086 64.722 834.154c-.683 2.811-.74 12.19-.74 12.19 0 20.482 16.605 37.069 37.105 37.069 20.481 0 37.105-16.587 37.105-37.069l.686-1.195c.315-135.981 104.969-247.401 238.221-258.734h.002a225.905 225.905 0 0 0 22.385 1.117c7.555 0 15.02-.385 22.384-1.117h.002c131.007 11.144 234.306 119.066 238.033 251.943-.185 1.492.023 7.986.023 7.986 0 20.482 16.607 37.069 37.105 37.069 20.482 0 37.087-16.587 37.087-37.069 0 0-.507-7.091-.766-8.868-2.281-100.768-49.164-190.473-121.749-250.246 3.482.16 26.198-.149 32.877-.815a222.736 222.736 0 0 0 39.887-7.696l.019.021C772 616.758 880.272 700.009 882.341 840.868c-.045.68.101 4.616.101 4.616l.081.86c0 20.482 16.623 37.069 37.105 37.069 20.5 0 37.106-16.587 37.106-37.069-.002.001-.519-6.995-.767-8.728zm-557.026-320.29c-84.598 0-153.177-68.578-153.177-153.176 0-84.594 68.578-153.172 153.177-153.172 84.594 0 153.172 68.578 153.172 153.172-.001 84.598-68.579 153.176-153.172 153.176zm285.507-19.09zm6.944-3.487a51.724 51.724 0 0 0-6.995 3.512 147.905 147.905 0 0 1-46.839 13.075l-14.678.845c-.48.006-.955.037-1.434.037-16.758 0-32.861-2.78-47.889-7.888 31.005-38.35 49.609-87.124 49.609-140.262 0-53.498-18.835-102.586-50.211-141.058a148.515 148.515 0 0 1 48.49-8.106c82.179 0 148.802 66.551 148.802 148.657 0 56.836-31.944 106.181-78.855 131.188z"/></svg>