<svg class="icon" width="200" height="200" viewBox="0 0 1024 1024" xmlns="http://www.w3.org/2000/svg"><path d="M512 783.36C240.64 783.36 25.6 665.6 25.6 512c0-15.36 10.24-25.6 25.6-25.6s25.6 10.24 25.6 25.6c0 117.76 199.68 220.16 435.2 220.16 138.24 0 271.36-35.84 353.28-92.16 35.84-25.6 81.92-66.56 81.92-122.88 0-15.36 10.24-25.6 25.6-25.6s25.6 10.24 25.6 25.6c0 61.44-35.84 117.76-102.4 163.84-92.16 61.44-230.4 102.4-384 102.4z"/><path d="M512 998.4c-271.36 0-486.4-117.76-486.4-271.36 0-15.36 10.24-25.6 25.6-25.6s25.6 10.24 25.6 25.6C76.8 844.8 276.48 947.2 512 947.2s435.2-102.4 435.2-220.16c0-15.36 10.24-25.6 25.6-25.6s25.6 10.24 25.6 25.6c0 153.6-215.04 271.36-486.4 271.36zm0-435.2c-271.36 0-486.4-117.76-486.4-271.36S240.64 20.48 512 20.48s486.4 117.76 486.4 271.36S783.36 563.2 512 563.2zm0-486.4c-235.52 0-435.2 102.4-435.2 220.16S276.48 517.12 512 517.12s435.2-102.4 435.2-220.16S747.52 76.8 512 76.8z"/></svg>