<svg class="icon" width="200" height="200" viewBox="0 0 1024 1024" xmlns="http://www.w3.org/2000/svg"><path d="M867.542 277.808h-51.287l8.378-12.262c12.262-18.389 24.52-49.042 18.389-73.561 0-24.517-18.39-49.037-36.78-61.302-30.652-18.388-61.3-18.388-98.084-12.257-73.558 18.39-147.12 79.69-190.03 140.99l-6.133 6.13-6.126-6.13c-42.91-61.3-116.47-122.601-190.034-140.99-36.78-12.263-67.432-6.131-98.079 12.256-24.52 12.265-36.78 36.784-36.78 61.301 0 24.521 6.127 49.042 18.39 73.562L206 277.807h-49.546c-42.91 0-73.563 30.648-73.563 73.558v125.06c0 30.652 24.52 61.299 55.169 67.43v328.537c0 42.91 30.652 73.561 73.563 73.561h300.371v.006h300.378c42.91 0 73.558-30.653 73.558-73.563v-291.75c0-12.259-.402-36.783-.402-36.783h6.534c24.52-6.132 49.042-36.78 49.042-67.431V351.367c0-42.91-30.653-73.559-73.563-73.559zM247.996 171.142c20.233-15.017 38.608-9.812 61.918-3.98 49.117 17.15 83.193 50.179 128.587 90.723l22.415 21.56H268.73c-17.483-23.314-35.89-47.55-35.89-76.69-.002-17.483 3.501-19.957 15.156-31.613zM136.968 454.599v-91.213c0-17.655 17.65-35.305 35.305-35.305H486.13v161.824H172.273c-23.539 0-35.305-17.65-35.305-35.306zm349.955 439.869H220.54c-22.733 0-34.1-11.37-34.1-34.103V577.957c0-17.052 17.053-34.105 34.105-34.105h266.38v350.616zm93.226-631.373c34.65-34.64 82.243-71.724 138.027-94.402 23.091-5.772 36.167-4.906 59.464 6.127 10.42 9.811 14.09 15.172 14.09 32.49 0 23.096-22.522 54.402-39.842 71.725h-186.35l14.61-15.94zm257.41 597.27c0 17.053-17.052 34.103-34.103 34.103H541.98V543.852h261.476c17.056 0 34.102 17.057 34.102 34.105v282.408zm47.049-405.03c0 17.897-17.898 35.8-35.795 35.8h-308.53V326.85h308.53c17.892 0 35.795 17.903 35.795 35.803v92.681z"/></svg>