<svg class="icon" width="200" height="185.51" viewBox="0 0 1104 1024" xmlns="http://www.w3.org/2000/svg"><path d="M371.853 1024h-40.157c-164.242 0-297.763-97.38-297.763-217.048v-379.08a10.04 10.04 0 0 1 20.078 0v379.08c0 108.624 124.687 196.97 277.885 196.97h40.157a10.04 10.04 0 0 1 0 20.078zm405.785 0H653.352a10.04 10.04 0 0 1 0-20.078h124.286c153.198 0 277.885-88.346 277.885-196.77v-158.82a10.04 10.04 0 0 1 20.079 0v158.82c0 119.468-133.723 216.848-297.964 216.848zm287.924-483.087a10.04 10.04 0 0 1-10.039-10.04V517.22a10.04 10.04 0 1 1 20.079 0v13.654a10.04 10.04 0 0 1-10.04 10.039z"/><path d="M1065.562 675.438a10.04 10.04 0 0 1-10.039-10.039V562.196a10.04 10.04 0 1 1 20.079 0v103.002a10.04 10.04 0 0 1-10.04 10.24zm0-176.288a10.04 10.04 0 0 1-10.039-10.04v-60.235a10.04 10.04 0 0 1 20.079 0v60.236a10.04 10.04 0 0 1-10.04 10.039z"/><path d="M1094.275 466.221a10.04 10.04 0 0 1-7.028-2.81L869.998 250.377a10.04 10.04 0 0 1 14.055-14.256l217.249 212.832a10.04 10.04 0 0 1-7.027 17.267zM845.704 222.67a10.04 10.04 0 0 1-7.028-2.811l-20.078-18.673a10.04 10.04 0 0 1 14.055-14.256l20.078 18.673a10.04 10.04 0 0 1-7.027 17.268zM10.039 468.229a10.04 10.04 0 0 1-6.826-17.267L421.647 53.409a175.285 175.285 0 0 1 29.315-23.291A215.04 215.04 0 0 1 624.64 10.039a189.741 189.741 0 0 1 75.093 45.779l95.172 93.365a10.04 10.04 0 0 1-14.055 14.255l-95.172-93.565a169.663 169.663 0 0 0-67.062-40.157 194.962 194.962 0 0 0-156.812 17.67A152.596 152.596 0 0 0 435.5 67.463L16.866 465.418a10.04 10.04 0 0 1-6.827 2.811zm729.048 553.16a7.63 7.63 0 0 1-7.429-7.428V734.067c0-55.416-35.94-100.392-80.314-100.392H459.595c-44.172 0-80.313 45.177-80.313 100.392v279.894a7.63 7.63 0 0 1-15.06 0V734.067c0-63.849 42.768-115.651 95.373-115.651h191.95c52.606 0 95.373 51.802 95.373 115.651v279.894a7.63 7.63 0 0 1-7.83 7.429z"/></svg>