<svg class="icon" width="200" height="200" viewBox="0 0 1024 1024" xmlns="http://www.w3.org/2000/svg"><path d="M509.6 386.2c67.6 0 122.6 55 122.6 122.6s-55 122.6-122.6 122.6S387 576.4 387 508.8s55-122.6 122.6-122.6m0-54.5c-97.8 0-177 79.3-177 177 0 97.8 79.3 177 177 177 97.8 0 177-79.3 177-177s-79.3-177-177-177m437.7 285.1c7.8-33.2 11.7-67.4 11.7-102.1 0-34.7-4-68.9-11.7-102.1-3.4-14.7-18.1-23.7-32.8-20.3-14.7 3.4-23.7 18.1-20.3 32.8 6.8 29.1 10.3 59.1 10.3 89.6 0 30.5-3.5 60.5-10.3 89.6-3.4 14.7 5.7 29.3 20.3 32.8 14.6 3.5 29.3-5.6 32.8-20.3zm-32.2 21c1.7 0 3.2 0 4.5.1 15 .7 27.8-11 28.4-26 .7-15-11-27.8-26-28.4-2.2-.1-4.4-.1-6.8-.1-15 0-27.2 12.2-27.2 27.3-.2 14.9 12 27.1 27.1 27.1zm-89 163.9c-11.1-17.1-17.1-37-17.1-57.8 0-58.6 47.5-106.1 106.1-106.1 15.1 0 27.3-12.2 27.3-27.2 0-15.1-12.2-27.3-27.3-27.3-88.7 0-160.6 71.9-160.6 160.6 0 31.5 9.1 61.7 26 87.6 8.2 12.6 25.1 16.2 37.7 8 12.5-8.3 16.1-25.2 7.9-37.8zM641.7 941.8c67.8-20.4 129.6-56.7 180.5-105.6 10.8-10.4 11.2-27.7.7-38.5-10.4-10.8-27.7-11.2-38.5-.8-44.7 43-98.9 74.9-158.4 92.7-14.4 4.3-22.6 19.5-18.3 33.9 4.4 14.5 19.5 22.7 34 18.3zm-224.6-14.5c17.4-36.9 54.5-61 96-61s78.7 24.1 96.1 61c6.4 13.6 22.6 19.5 36.3 13.1 13.6-6.4 19.5-22.6 13.1-36.3-26.3-55.8-82.5-92.3-145.4-92.3-62.8 0-119.1 36.4-145.3 92.3-6.4 13.6-.6 29.9 13.1 36.3 13.4 6.4 29.7.6 36.1-13.1zm-211.8-89.9c50.7 48.3 112 84.2 179.3 104.5 14.4 4.3 29.6-3.8 33.9-18.3 4.3-14.4-3.8-29.6-18.3-33.9-59-17.7-112.8-49.2-157.3-91.7-10.9-10.4-28.1-10-38.5.9-10.4 10.8-10 28.1.9 38.5zM113 637.8c58.6 0 106.1 47.5 106.1 106.1 0 21.2-6.2 41.4-17.7 58.7-8.3 12.5-4.9 29.4 7.6 37.8 12.5 8.3 29.4 4.9 37.8-7.6 17.4-26.1 26.8-56.9 26.8-88.9 0-88.7-71.9-160.6-160.6-160.6-15.1 0-27.3 12.2-27.3 27.3.1 15 12.3 27.2 27.3 27.2zm-6 .1c1.8-.1 3.8-.2 6-.2 15 0 27.2-12.2 27.2-27.2 0-15.1-12.2-27.3-27.2-27.3-3.1 0-6.1.1-9 .2-15 .8-26.5 13.7-25.7 28.7.8 15.1 13.7 26.6 28.7 25.8zM79 412.6c-7.8 33.3-11.8 67.5-11.8 102.1 0 34.7 4 68.9 11.8 102.1 3.4 14.7 18.1 23.7 32.7 20.3 14.7-3.4 23.7-18.1 20.3-32.7-6.8-29.2-10.3-59.3-10.3-89.7 0-30.5 3.5-60.5 10.3-89.7 3.4-14.6-5.7-29.3-20.3-32.7-14.6-3.4-29.3 5.7-32.7 20.3zm34-20.8c-2.2 0-4.2 0-6-.2-15-.8-27.9 10.7-28.7 25.7-.8 15 10.7 27.9 25.7 28.7 2.9.2 5.9.2 9 .2 15 0 27.2-12.2 27.2-27.3.1-14.9-12.1-27.1-27.2-27.1zM201.4 227c11.5 17.3 17.7 37.5 17.7 58.7 0 58.6-47.5 106.1-106.1 106.1-15 0-27.2 12.2-27.2 27.2 0 15.1 12.2 27.3 27.3 27.3 88.7 0 160.6-71.9 160.6-160.6 0-32-9.4-62.8-26.8-88.9-8.3-12.5-25.2-15.9-37.8-7.6-12.6 8.3-16 25.2-7.7 37.8zM384.6 87.7c-67.3 20.2-128.6 56.1-179.3 104.5-10.9 10.4-11.3 27.6-.9 38.5 10.4 10.9 27.6 11.3 38.5.9 44.5-42.5 98.3-74 157.3-91.7 14.4-4.3 22.6-19.5 18.3-33.9-4.3-14.5-19.5-22.6-33.9-18.3zm224.6 14.5c-17.4 36.9-54.5 61-96 61s-78.7-24.1-96.1-61c-6.4-13.6-22.6-19.5-36.3-13.1-13.6 6.4-19.5 22.6-13.1 36.3 26.3 55.8 82.5 92.3 145.4 92.3 62.8 0 119.1-36.4 145.3-92.3 6.4-13.6.6-29.9-13.1-36.3-13.5-6.4-29.7-.5-36.1 13.1zm212.9 91.1c-50.9-48.9-112.7-85.2-180.5-105.6-14.4-4.3-29.6 3.8-33.9 18.2-4.3 14.4 3.8 29.6 18.2 33.9 59.5 17.9 113.7 49.8 158.4 92.7 10.9 10.4 28.1 10.1 38.5-.8 10.5-10.7 10.2-27.9-.7-38.4zm93 198.5c-58.6 0-106.1-47.5-106.1-106.1 0-20.9 6-40.8 17.1-57.9 8.2-12.6 4.6-29.5-8-37.7-12.6-8.2-29.5-4.6-37.7 8-16.8 25.9-26 56.1-26 87.6 0 88.7 71.9 160.6 160.6 160.6 15.1 0 27.3-12.2 27.3-27.3 0-15-12.2-27.2-27.2-27.2zm4.4-.1c-1.3.1-2.8.1-4.5.1-15 0-27.2 12.2-27.2 27.3 0 15 12.2 27.2 27.2 27.2 2.5 0 4.7 0 6.8-.1 15-.7 26.7-13.4 26-28.4-.5-15.1-13.2-26.8-28.3-26.1zm0 0"/></svg>