<svg class="icon" width="200" height="190.87" viewBox="0 0 1073 1024" xmlns="http://www.w3.org/2000/svg"><path d="M590.483 225.016L434.337 351.244 269.182 239.217a21.438 21.438 0 0 0-26.376 1.812L110.887 359.765a21.438 21.438 0 1 0 28.687 31.862L259.002 284.13l164.473 111.58a21.438 21.438 0 0 0 25.45-1.079l168.514-136.235a21.438 21.438 0 1 0-26.956-33.338zm90.09-171.233H386.025V21.921c0-12.022-9.833-22.151-21.845-21.917a21.428 21.428 0 0 0-21.021 21.428v32.351H48.608A48.608 48.608 0 0 0 0 102.412v400.296a48.618 48.618 0 0 0 48.608 48.618h294.55v24.431l-133.13 100.891a21.438 21.438 0 1 0 25.897 34.174l107.233-81.255s6.962-5.09 13.04-9.314a14.537 14.537 0 0 1 16.613 0l13.234 9.263 107.233 81.255a21.438 21.438 0 1 0 25.887-34.112l-133.13-100.881v-24.431h294.539a48.608 48.608 0 0 0 48.618-48.64V102.403a48.618 48.618 0 0 0-48.618-48.619zm5.742 448.925a5.752 5.752 0 0 1-5.741 5.741H48.608a5.731 5.731 0 0 1-5.731-5.741V102.402a5.741 5.741 0 0 1 5.731-5.732h631.966a5.741 5.741 0 0 1 5.741 5.732zm0 0"/></svg>